<?xml version="1.0" encoding="utf-8"?>
<!-- Generator: Adobe Illustrator 18.1.1, SVG Export Plug-In . SVG Version: 6.00 Build 0)  -->
<svg version="1.1" id="Layer_1" xmlns:sketch="http://www.bohemiancoding.com/sketch/ns"
	 xmlns="http://www.w3.org/2000/svg" xmlns:xlink="http://www.w3.org/1999/xlink" x="0px" y="0px" viewBox="-153.6 163 177.4 177.4"
	 enable-background="new -153.6 163 177.4 177.4" xml:space="preserve">
<title>shield-large</title>
<desc>Created with Sketch.</desc>
<g id="Page-1" sketch:type="MSPage">
	<g id="shield-large" sketch:type="MSArtboardGroup">
		<g id="Imported-Layers" transform="translate(8.000000, 11.000000)" sketch:type="MSLayerGroup">
			<path id="Fill-1" sketch:type="MSShapeGroup" fill="#E23237" d="M-73.8,152L-73.8,152l-82.9,29.4l12.6,109.2l70.1,38.8l71.1-39.3
				L11,180.9L-73.8,152"/>
			<path id="Fill-2" sketch:type="MSShapeGroup" fill="#B52E31" d="M10.8,180.9L-74,152v177.4l71.1-39.3L10.8,180.9L10.8,180.9z"/>
			<path id="Fill-3" sketch:type="MSShapeGroup" fill="#E23237" d="M-156.8,181.4l12.6,109.2l70.1,38.8V152L-156.8,181.4
				L-156.8,181.4z"/>
			<path id="Fill-4" sketch:type="MSShapeGroup" fill="#FFFFFF" d="M-56.3,245.2L-74,208.7l-15.2,36.5H-56.3L-56.3,245.2z
				 M-49.6,260.6h-46.5l-10.4,25.9l-19.3,0.4L-74,171.8l53.7,115.1h-17.9L-49.6,260.6L-49.6,260.6z"/>
		</g>
	</g>
</g>
</svg>
