<?xml version="1.0" encoding="utf-8"?>
<!-- Generator: Adobe Illustrator 15.0.0, SVG Export Plug-In . SVG Version: 6.00 Build 0)  -->
<!DOCTYPE svg PUBLIC "-//W3C//DTD SVG 1.1//EN" "http://www.w3.org/Graphics/SVG/1.1/DTD/svg11.dtd">
<svg version="1.1" id="Calque_1" xmlns="http://www.w3.org/2000/svg" xmlns:xlink="http://www.w3.org/1999/xlink" x="0px" y="0px"
	 width="198.25px" height="131.25px" viewBox="0 0 198.25 131.25" enable-background="new 0 0 198.25 131.25" xml:space="preserve">
<g>
	<path fill="none" stroke="#FFFFFF" stroke-width="1.5" d="M53.49,120.732c-12.729-0.368-22.551-4.355-27.348-12.223
		c-8.015-13.145-0.013-33.786,18.551-53.735c0.651-4.583,2.881-8.804,6.058-12.75C17.521,61.971-1.691,87.651,5.503,106.289
		c4.742,12.285,20.039,19.129,40.801,20.205C49.016,124.566,51.408,122.646,53.49,120.732z"/>
	<path fill="none" stroke="#FFFFFF" stroke-width="1.5" d="M97.521,111.489c-10.477,4.183-20.605,6.983-29.844,8.337
		c-2.461,2.269-5.208,4.478-8.217,6.614c12.063-0.667,25.373-2.975,39.176-6.971C98.219,116.985,97.848,114.309,97.521,111.489z"/>
	<path fill="none" stroke="#FFFFFF" stroke-width="1.5" d="M131.377,93.4c-2.119,1.411-4.284,2.798-6.504,4.151
		c-4.423,2.697-8.864,5.15-13.288,7.386c-0.407,4.096-0.876,7.865-1.45,10.821c2.089-0.734,4.151-1.65,6.25-2.461
		c5.497-2.122,10.797-4.421,15.874-6.861C131.874,102.271,131.579,97.883,131.377,93.4z"/>
	<path fill="none" stroke="#FFFFFF" stroke-width="1.5" d="M193.677,33.616c-2.04-5.286-6.037-9.564-11.58-12.81
		c3.901,16.167-9.699,39.628-34.131,60.299c-0.023,6.111-0.236,12.023-0.601,17.416C181.25,78.487,200.948,52.455,193.677,33.616z"
		/>
</g>
<g>
	<g>
		<g>
			<path fill="none" stroke="#FFFFFF" stroke-width="1.5" d="M108.432,18.362c8.844-2.181,17.418-3.651,25.513-4.422v-0.355
				l9.73-5.818v5.575c15.827-0.41,29.25,2.129,38.427,7.502c-0.51-2.113-1.314-4.104-2.438-5.944
				c-9.501-15.582-38.669-16.003-71.232-3.041V18.362z"/>
		</g>
		<g>
			<path fill="none" stroke="#FFFFFF" stroke-width="1.5" d="M98.701,16.1c-5.897,2.779-11.85,5.962-17.769,9.571
				c-1.798,1.097-3.549,2.222-5.279,3.357l0.273,0.234c2.257-0.96,4.541-1.9,6.871-2.801c5.34-2.061,10.653-3.869,15.903-5.441V16.1
				z"/>
		</g>
	</g>
</g>
<g>
	<g>
		<g>
			<path fill="none" stroke="#FFFFFF" stroke-width="1.5" d="M54.217,77.745c-8.005-8.639-10.487-16.199-9.524-22.971
				C26.128,74.724,18.126,95.365,26.142,108.51c4.797,7.867,14.619,11.854,27.348,12.223
				C69.349,106.149,67.369,91.938,54.217,77.745z"/>
		</g>
		<g>
			<path fill="none" stroke="#FFFFFF" stroke-width="1.5" d="M182.102,20.844c-9.177-5.373-22.6-7.912-38.427-7.502v11.479
				l-9.73,5.818V13.94c-8.095,0.771-16.669,2.241-25.513,4.422v6.459l-9.73,5.818v-9.619c-5.25,1.572-10.563,3.381-15.903,5.441
				c-2.331,0.9-4.614,1.841-6.871,2.801l3.123,2.677c-16,9.125-25.529,20.47-6.875,39.875c15.414,16.034,11.509,33.265-4.497,48.012
				c9.238-1.354,19.367-4.154,29.844-8.337c-2.622-22.673-2.262-54.543,1.18-69.963l9.73-5.818
				c4.887,19.457,5.104,49.821,3.154,69.414c4.424-2.235,8.865-4.688,13.288-7.386c2.22-1.354,4.385-2.74,6.504-4.151
				c-0.874-19.37-0.034-40.41,2.566-52.059l9.73-5.818c3.151,12.548,4.356,29.629,4.296,45.435
				C172.402,60.472,186.003,37.011,182.102,20.844z"/>
		</g>
	</g>
</g>
<path fill="#FFFFFF" d="M48.181,44.357c0,0-2.157,4.888-3.594,10.352s0.431,8.483,3.019,14.09s8.339,11.502,12.94,17.541
	s3.882,13.228,3.307,18.69s-7.188,12.509-7.188,12.509l-11.072,9.666c0,0,1.187,0.125,6.219,0.125s5.219,0,5.219,0l2.941-1.021
	l5.607-4.457l7.333-7.333l6.326-9.921c0,0,2.402-9.457,2.444-10.639s-0.862-8.195-0.862-8.195s-4.17-7.62-5.464-10.353
	s-4.025-3.45-5.032-5.031s-5.751-8.052-5.751-8.052l-3.163-11.214c0,0,2.731-7.62,5.176-10.208s10.333-8.204,11.214-8.77
	s-1.294-1.725-1.294-1.725l0.275-1.3l-4.313-3.906c0,0-9.637,4.818-16.406,10.453c-5.024,4.183-6.234,6.281-6.234,6.281
	L48.181,44.357z"/>
<path fill="#FFFFFF" d="M98.769,15.248c0,0,1.854-0.845,4.552-2.017s5.042-2.153,5.042-2.153l0.327,13.628l-9.976,5.806
	L98.769,15.248z"/>
<path fill="#FFFFFF" d="M98.769,41.602l9.594-5.751l2.535,11.065l0.872,12.265l0.872,16.134l-0.082,12.071l-0.545,12.346
	l-0.437,5.476l-0.98,7.469l-0.735,3.954c0,0-1.416,0.552-5.125,1.744c-3.815,1.227-5.696,1.742-5.696,1.742l-0.927-4.143
	l-1.826-18.287l-0.273-13.056l0.082-17.008l1.009-16.543L98.769,41.602z"/>
<path fill="#FFFFFF" d="M147.363,96.324l-0.19,3.189c0,0-3.626,2.126-7.169,3.952s-7.222,3.569-7.222,3.569l-0.873-4.687
	l-0.682-13.438l-0.218-12.345l0.437-13.247l1.063-13.108l1.28-8.504l9.785-5.669l1.99,9.485l1.58,13.3l0.436,9.84l0.354,12.1
	l-0.218,12.345L147.363,96.324z"/>
<polygon fill="#FFFFFF" points="133.818,13.933 143.63,7.691 143.739,24.835 133.954,30.56 "/>
</svg>
