<?xml version="1.0" encoding="utf-8"?>
<!-- Generator: Adobe Illustrator 15.0.0, SVG Export Plug-In . SVG Version: 6.00 Build 0)  -->
<!DOCTYPE svg PUBLIC "-//W3C//DTD SVG 1.1//EN" "http://www.w3.org/Graphics/SVG/1.1/DTD/svg11.dtd">
<svg version="1.1" id="Calque_1" xmlns="http://www.w3.org/2000/svg" xmlns:xlink="http://www.w3.org/1999/xlink" x="0px" y="0px"
	 width="198.25px" height="131.25px" viewBox="0 0 198.25 131.25" enable-background="new 0 0 198.25 131.25" xml:space="preserve">
<path fill="#FFFFFF" d="M149.625,96.073l-0.92,0.213c3.806-10.969,17.818-51.392,17.723-51.584
	c-0.111-0.223-11.808-36.759-11.808-36.759S148.568,1.45,124.453,7.6c-23.94,6.105-44.42,19.47-44.42,19.47s-1.895,1.141-4.857,3.07
	l-3.232-2.922c0,0-6.568,3.235-13.545,8.34c-4.478,3.275-7.313,6.574-8.124,7.57c-0.598,0.367-0.917,0.571-0.917,0.571
	L33.665,64.597l-3.502,26.337l9.909-8.273l-1.185,11.499c0,0-6.938,31.889,2.529,33.003c1.16,0.137,2.47,0.255,3.921,0.345
	l-0.013,0.027c0,0,4.325,0.247,7.438,0.192s6.474-0.248,6.474-0.248l0.005-0.042c9.922-0.608,22.629-2.435,37.667-6.563
	c12.442-3.416,24.3-8.379,33.432-12.713l0.055,0.144c0,0,2.443-0.984,9.284-4.655c6.777-3.637,8.761-5.014,10.854-6.254
	S149.625,96.073,149.625,96.073z"/>
<g>
	<path fill="#055BA3" d="M52.964,121.808c-12.729-0.368-22.551-4.355-27.348-12.223C17.601,96.44,25.603,75.799,44.167,55.85
		c0.651-4.583,2.881-8.804,6.058-12.75C16.995,63.046-2.217,88.727,4.978,107.364c4.742,12.285,20.039,19.129,40.801,20.205
		C48.49,125.642,50.883,123.722,52.964,121.808z"/>
	<path fill="#055BA3" d="M96.996,112.564c-10.477,4.183-20.605,6.983-29.844,8.337c-2.461,2.269-5.209,4.478-8.217,6.614
		c12.063-0.667,25.373-2.975,39.176-6.971C97.693,118.061,97.322,115.384,96.996,112.564z"/>
	<path fill="#055BA3" d="M130.853,94.66c-2.119,1.411-4.284,2.798-6.504,4.151c-4.423,2.697-8.864,5.15-13.288,7.386
		c-0.407,4.096-0.909,7.717-1.483,10.673c2.089-0.734,4.185-1.502,6.283-2.313c5.497-2.122,10.797-4.421,15.874-6.861
		C131.35,103.53,131.055,99.143,130.853,94.66z"/>
	<path fill="#055BA3" d="M193.156,34.729c-2.04-5.286-6.037-9.564-11.58-12.81c3.901,16.167-9.699,39.628-34.131,60.299
		c-0.023,6.111-0.236,12.023-0.601,17.416C180.729,79.6,200.428,53.567,193.156,34.729z"/>
</g>
<g>
	<path fill="#BCD5EB" d="M107.906,19.438c8.844-2.181,17.418-3.651,25.513-4.422V14.66l9.73-5.818v5.575
		c15.827-0.41,29.25,2.129,38.427,7.502c-0.51-2.113-1.314-4.104-2.438-5.944c-9.501-15.582-38.669-16.003-71.232-3.041V19.438z"/>
	<path fill="#BCD5EB" d="M98.176,17.175c-5.897,2.779-11.85,5.962-17.769,9.571c-1.798,1.097-3.549,2.222-5.278,3.357l0.273,0.234
		c2.257-0.96,4.54-1.9,6.871-2.801c5.34-2.061,10.652-3.869,15.902-5.441V17.175z"/>
</g>
<g>
	<path fill="#89B5DD" d="M53.691,78.82c-8.005-8.639-10.487-16.199-9.524-22.971C25.603,75.799,17.601,96.44,25.616,109.585
		c4.797,7.867,14.619,11.854,27.348,12.223C68.823,107.225,66.844,93.014,53.691,78.82z"/>
	<path fill="#89B5DD" d="M181.576,21.919c-9.177-5.373-22.6-7.912-38.427-7.502v11.479l-9.73,5.818V15.016
		c-8.095,0.771-16.669,2.241-25.513,4.422v6.459l-9.73,5.818v-9.619c-5.25,1.572-10.563,3.381-15.902,5.441
		c-2.331,0.9-4.614,1.841-6.871,2.801l3.122,2.677c-16,9.125-25.529,20.47-6.875,39.875c15.413,16.034,11.509,33.265-4.497,48.012
		c9.238-1.354,19.367-4.154,29.844-8.337c-2.622-22.673-2.262-54.543,1.18-69.963l9.73-5.818
		c4.887,19.457,5.104,49.821,3.154,69.414c4.424-2.235,8.865-4.688,13.288-7.386c2.22-1.354,4.385-2.74,6.504-4.151
		c-0.874-19.37-0.034-40.41,2.566-52.059l9.73-5.818c3.151,12.548,4.356,29.629,4.296,45.435
		C171.877,61.547,185.478,38.086,181.576,21.919z"/>
</g>
</svg>
