<?xml version="1.0" encoding="utf-8"?>
<!-- Generator: Adobe Illustrator 19.0.0, SVG Export Plug-In . SVG Version: 6.00 Build 0)  -->
<svg version="1.1" id="Layer_1" xmlns="http://www.w3.org/2000/svg" xmlns:xlink="http://www.w3.org/1999/xlink" x="0px" y="0px"
	 viewBox="106 78 146 146" style="enable-background:new 106 78 146 146;" xml:space="preserve">
<style type="text/css">
	.st0{fill:#FFFFFF;}
	.st1{fill:#A6A385;}
	.st2{fill:#499D4A;}
	.st3{fill:#58AA50;}
</style>
<path class="st0" d="M181.1,220.3l-3.8-1.3c0,0,0.5-19.3-6.5-20.7c-4.6-5.4,0.7-227,17.4-0.7c0,0-5.7,2.9-6.7,7.8
	C180.3,210.2,181.1,220.3,181.1,220.3z"/>
<path class="st1" d="M181.1,220.3l-3.8-1.3c0,0,0.5-19.3-6.5-20.7c-4.6-5.4,0.7-227,17.4-0.7c0,0-5.7,2.9-6.7,7.8
	C180.3,210.2,181.1,220.3,181.1,220.3z"/>
<path class="st0" d="M183.1,201.7c0,0,33.1-21.8,25.4-67.1c-7.5-32.9-25.1-43.7-27-47.9c-2.1-3-4.2-8.1-4.2-8.1l1.4,91.6
	C178.7,170.3,175.8,198.3,183.1,201.7"/>
<path class="st2" d="M183.1,201.7c0,0,33.1-21.8,25.4-67.1c-7.5-32.9-25.1-43.7-27-47.9c-2.1-3-4.2-8.1-4.2-8.1l1.4,91.6
	C178.7,170.3,175.8,198.3,183.1,201.7"/>
<path class="st0" d="M175.3,202.9c0,0-31.1-21.2-29.3-58.6c1.8-37.4,23.7-55.7,28-59.1c2.8-3,2.9-4.1,3-7c1.9,4.2,1.6,62.1,1.8,68.9
	C179.8,173.4,177.5,197.9,175.3,202.9z"/>
<path class="st3" d="M175.3,202.9c0,0-31.1-21.2-29.3-58.6c1.8-37.4,23.7-55.7,28-59.1c2.8-3,2.9-4.1,3-7c1.9,4.2,1.6,62.1,1.8,68.9
	C179.8,173.4,177.5,197.9,175.3,202.9z"/>
</svg>
