<svg xmlns="http://www.w3.org/2000/svg" id="svg" style="display: block;" viewBox="0 0 400 255.978" width="400" height="255.978" xmlns:xlink="http://www.w3.org/1999/xlink" version="1.1"><g id="svgg"><path id="path0" fill="#f7a72b" fill-rule="evenodd" stroke="none" d="M 211.49 2.011 C 210.555 2.525 209.634 3.077 209.441 3.238 C 209.089 3.532 207.637 4.336 204.672 5.878 C 203.791 6.337 203.008 6.813 202.931 6.937 C 202.811 7.131 201.346 7.923 198.335 9.422 C 197.913 9.632 197.337 10 197.055 10.24 C 196.773 10.479 195.297 11.333 193.775 12.137 C 192.252 12.94 190.403 13.985 189.664 14.457 C 188.926 14.929 187.873 15.503 187.325 15.732 C 186.776 15.961 185.975 16.414 185.545 16.738 C 185.115 17.061 183.496 17.992 181.946 18.806 C 180.397 19.62 178.979 20.408 178.795 20.558 C 178.324 20.94 173.558 23.56 173.333 23.56 C 173.231 23.56 172.979 23.729 172.772 23.935 C 172.565 24.142 171.412 24.831 170.208 25.465 C 169.005 26.1 167.409 27.01 166.661 27.488 C 165.913 27.966 164.437 28.788 163.38 29.315 C 162.324 29.842 161.114 30.523 160.691 30.828 C 160.269 31.133 159.347 31.685 158.643 32.055 C 155.509 33.702 154.281 34.387 154.161 34.554 C 154.091 34.653 152.797 35.394 151.287 36.2 C 149.776 37.006 147.935 38.064 147.195 38.551 C 146.456 39.038 145.754 39.437 145.637 39.437 C 145.519 39.437 144.184 40.172 142.67 41.07 C 141.157 41.969 139.176 43.083 138.269 43.545 C 137.362 44.008 136.447 44.532 136.236 44.71 C 136.024 44.888 134.699 45.633 133.291 46.365 C 131.882 47.098 130.499 47.894 130.218 48.136 C 129.936 48.377 128.784 49.07 127.657 49.676 C 126.53 50.282 125.147 51.088 124.584 51.467 C 124.02 51.846 122.609 52.665 121.447 53.287 C 120.285 53.909 119.335 54.491 119.334 54.58 C 119.334 54.728 126.099 58.724 136.748 64.868 C 138.931 66.127 141.176 67.45 141.736 67.808 C 142.297 68.166 142.884 68.459 143.041 68.459 C 143.303 68.459 150.535 64.427 152.625 63.117 C 153.118 62.807 154.328 62.12 155.314 61.589 C 156.3 61.058 158.028 60.079 159.155 59.414 C 160.282 58.749 162.817 57.306 164.789 56.207 C 166.761 55.108 169.296 53.668 170.423 53.008 C 171.549 52.348 173.451 51.263 174.648 50.596 C 178.659 48.361 180.906 47.086 183.227 45.728 C 184.494 44.986 186.972 43.572 188.732 42.586 C 194.971 39.091 200.398 36.015 201.408 35.4 C 202.371 34.815 205.295 33.153 210.619 30.165 C 211.882 29.456 213.155 28.719 213.449 28.527 C 213.937 28.207 214.456 28.454 219.603 31.46 C 222.695 33.265 229.257 37.082 234.187 39.941 C 239.117 42.8 244.475 45.914 246.095 46.86 C 247.714 47.806 250.595 49.483 252.497 50.585 C 254.398 51.688 257.1 53.261 258.501 54.08 C 261.693 55.947 260.874 56.052 265.813 53.14 C 267.292 52.267 270 50.685 271.831 49.624 C 273.662 48.562 276.543 46.888 278.233 45.903 C 279.923 44.918 282.084 43.669 283.035 43.128 C 285.333 41.82 285.526 42.071 279.641 38.74 C 278.163 37.902 275.512 36.378 273.752 35.351 C 271.991 34.325 269.629 32.96 268.502 32.319 C 267.375 31.678 266.108 30.898 265.685 30.586 C 265.262 30.274 264.341 29.717 263.636 29.348 C 262.154 28.57 261.232 28.033 259.776 27.097 C 259.202 26.729 257.762 25.914 256.575 25.287 C 255.388 24.66 253.956 23.831 253.393 23.445 C 252.83 23.058 251.484 22.295 250.403 21.749 C 249.323 21.203 248.367 20.642 248.281 20.502 C 248.194 20.362 247.581 19.972 246.917 19.636 C 244.724 18.524 242.64 17.357 242.51 17.168 C 242.439 17.065 241.344 16.428 240.077 15.751 C 236.9 14.055 236.765 13.979 236.62 13.79 C 236.549 13.698 235.166 12.909 233.547 12.036 C 231.927 11.163 230.544 10.374 230.474 10.282 C 230.321 10.083 229.693 9.722 227.145 8.366 C 226.088 7.804 225.051 7.202 224.84 7.027 C 224.438 6.696 223.978 6.431 220.615 4.601 C 219.488 3.988 218.508 3.41 218.438 3.316 C 218.112 2.881 214.296 1.027 213.775 1.05 C 213.452 1.065 212.424 1.497 211.49 2.011 M 269.723 77.676 C 268.181 78.594 266.837 79.541 267.734 79.079 C 268.619 78.623 271.703 76.749 271.703 76.667 C 271.703 76.503 271.642 76.535 269.723 77.676 M 264.18 80.925 C 261.173 82.724 260.695 83.118 262.996 81.901 C 264.926 80.88 266.837 79.69 266.837 79.51 C 266.837 79.328 266.922 79.283 264.18 80.925 M 212.164 83.007 C 211.178 83.579 209.046 84.826 207.426 85.778 C 205.807 86.73 202.81 88.465 200.768 89.634 C 198.726 90.802 196.364 92.183 195.519 92.702 C 194.673 93.22 193.175 94.097 192.19 94.649 C 190.018 95.867 190.018 95.868 192.645 97.333 C 196.853 99.681 201.726 102.414 204.481 103.972 C 206.031 104.848 208.832 106.419 210.706 107.463 L 214.113 109.363 L 216.98 107.661 C 220.348 105.662 223.229 103.977 227.724 101.378 C 229.521 100.338 232.402 98.654 234.126 97.634 C 235.85 96.615 237.404 95.779 237.58 95.778 C 238.332 95.77 237.789 95.214 236.3 94.465 C 235.419 94.022 234.641 93.577 234.571 93.476 C 234.501 93.375 233.06 92.562 231.37 91.669 C 229.68 90.777 228.239 89.967 228.169 89.87 C 228.099 89.773 226.889 89.088 225.48 88.347 C 224.072 87.606 222.343 86.632 221.639 86.183 C 220.935 85.734 219.898 85.154 219.335 84.894 C 218.772 84.635 217.368 83.866 216.214 83.184 C 215.061 82.503 214.082 81.951 214.037 81.956 C 213.993 81.962 213.15 82.435 212.164 83.007" /><path id="path1" fill="#a4acac" fill-rule="evenodd" stroke="none" d="M 256.189 25.063 C 256.265 25.185 256.704 25.439 257.165 25.626 C 257.626 25.814 258.636 26.374 259.411 26.87 C 261.211 28.024 262.052 28.517 263.636 29.348 C 264.341 29.717 265.262 30.274 265.685 30.586 C 266.108 30.898 267.375 31.678 268.502 32.319 C 269.629 32.96 271.991 34.325 273.752 35.351 C 275.512 36.378 278.393 38.045 280.154 39.056 C 281.914 40.066 283.729 41.113 284.187 41.381 L 285.02 41.869 L 284.955 55.442 L 284.891 69.014 L 282.33 70.522 C 280.922 71.351 278.732 72.633 277.465 73.371 C 270.787 77.258 267.335 79.305 266.062 80.131 C 265.283 80.637 263.985 81.396 263.178 81.818 C 261.832 82.522 261.768 82.594 262.409 82.673 C 262.794 82.72 263.151 82.634 263.202 82.481 C 263.253 82.328 263.49 82.202 263.729 82.202 C 263.968 82.202 264.33 81.972 264.533 81.69 C 264.736 81.408 265.032 81.178 265.19 81.178 C 265.713 81.178 266.959 80.444 267.342 79.91 C 267.549 79.621 267.917 79.385 268.159 79.385 C 268.402 79.385 268.671 79.27 268.758 79.129 C 268.845 78.988 269.14 78.873 269.413 78.873 C 269.687 78.873 269.91 78.758 269.91 78.617 C 269.91 78.476 270.115 78.361 270.366 78.361 C 270.617 78.361 270.988 78.131 271.191 77.849 C 271.394 77.567 271.69 77.337 271.848 77.337 C 272.371 77.337 273.617 76.603 274 76.069 C 274.207 75.78 274.575 75.544 274.817 75.544 C 275.06 75.544 275.329 75.429 275.416 75.288 C 275.503 75.147 275.798 75.032 276.071 75.032 C 276.345 75.032 276.569 74.917 276.569 74.776 C 276.569 74.635 276.774 74.52 277.024 74.52 C 277.275 74.52 277.646 74.289 277.849 74.008 C 278.052 73.726 278.427 73.496 278.682 73.496 C 278.937 73.496 279.212 73.323 279.293 73.111 C 279.374 72.9 279.633 72.727 279.868 72.727 C 280.104 72.727 280.463 72.497 280.666 72.215 C 280.869 71.933 281.24 71.703 281.491 71.703 C 281.741 71.703 281.946 71.588 281.946 71.447 C 281.946 71.306 282.101 71.191 282.291 71.191 C 282.89 71.191 284.122 70.464 284.774 69.726 L 285.403 69.014 L 285.403 55.289 C 285.403 39.894 285.575 41.152 283.328 40.053 C 282.568 39.681 281.946 39.275 281.946 39.15 C 281.946 39.026 281.716 38.924 281.434 38.924 C 281.152 38.924 280.922 38.809 280.922 38.668 C 280.922 38.528 280.691 38.412 280.41 38.412 C 280.128 38.412 279.898 38.305 279.898 38.173 C 279.898 38.042 279.638 37.853 279.321 37.753 C 279.004 37.653 278.559 37.357 278.331 37.095 C 278.103 36.834 277.729 36.62 277.499 36.62 C 277.269 36.62 277.081 36.504 277.081 36.364 C 277.081 36.223 276.857 36.108 276.584 36.108 C 276.31 36.108 276.015 35.992 275.928 35.851 C 275.841 35.711 275.572 35.595 275.33 35.595 C 275.087 35.595 274.723 35.365 274.52 35.083 C 274.317 34.802 273.946 34.571 273.695 34.571 C 273.444 34.571 273.239 34.464 273.239 34.334 C 273.239 34.076 271.805 33.291 271.336 33.291 C 271.177 33.291 270.882 33.06 270.679 32.778 C 270.476 32.497 270.104 32.266 269.854 32.266 C 269.603 32.266 269.398 32.151 269.398 32.01 C 269.398 31.869 269.189 31.754 268.934 31.754 C 268.679 31.754 268.24 31.54 267.959 31.277 C 267.314 30.677 265.131 29.449 264.708 29.449 C 264.533 29.449 264.224 29.219 264.02 28.937 C 263.817 28.656 263.453 28.425 263.211 28.425 C 262.969 28.425 262.699 28.31 262.612 28.169 C 262.525 28.028 262.23 27.913 261.957 27.913 C 261.683 27.913 261.46 27.798 261.46 27.657 C 261.46 27.516 261.267 27.401 261.032 27.401 C 260.796 27.401 260.417 27.232 260.189 27.026 C 259.391 26.303 255.896 24.588 256.189 25.063 M 133.163 46.026 C 132.81 46.091 132.43 46.306 132.318 46.504 C 132.205 46.701 131.906 46.863 131.653 46.863 C 131.4 46.863 130.985 47.093 130.73 47.375 C 130.475 47.657 130.054 47.887 129.794 47.887 C 129.534 47.887 129.321 48.003 129.321 48.143 C 129.321 48.284 129.091 48.399 128.809 48.399 C 128.528 48.399 128.297 48.515 128.297 48.656 C 128.297 48.796 128.084 48.912 127.825 48.912 C 127.565 48.912 127.144 49.142 126.889 49.424 C 126.634 49.706 126.212 49.936 125.953 49.936 C 125.693 49.936 125.48 50.051 125.48 50.192 C 125.48 50.333 125.347 50.448 125.184 50.448 C 125.021 50.448 124.511 50.736 124.049 51.088 C 123.587 51.44 123.087 51.729 122.936 51.729 C 122.786 51.729 122.663 51.844 122.663 51.985 C 122.663 52.125 122.433 52.241 122.151 52.241 C 121.869 52.241 121.639 52.356 121.639 52.497 C 121.639 52.638 121.415 52.753 121.142 52.753 C 120.868 52.753 120.574 52.868 120.487 53.009 C 120.4 53.15 120.154 53.265 119.941 53.265 C 118.818 53.265 118.822 53.216 118.822 68.356 C 118.822 82.544 118.828 82.714 119.334 82.714 C 119.616 82.714 119.846 82.804 119.846 82.912 C 119.846 83.021 120.25 83.327 120.743 83.593 C 121.236 83.858 121.639 84.173 121.639 84.291 C 121.639 84.41 121.869 84.507 122.151 84.507 C 122.433 84.507 122.663 84.622 122.663 84.763 C 122.663 84.904 122.876 85.019 123.136 85.019 C 123.396 85.019 123.817 85.25 124.072 85.531 C 124.327 85.813 124.748 86.044 125.008 86.044 C 125.268 86.044 125.48 86.159 125.48 86.3 C 125.48 86.44 125.711 86.556 125.992 86.556 C 126.274 86.556 126.504 86.663 126.504 86.795 C 126.504 86.926 126.764 87.112 127.081 87.208 C 127.398 87.304 127.887 87.571 128.169 87.802 C 128.909 88.406 129.772 88.86 130.183 88.86 C 130.379 88.86 130.681 89.031 130.853 89.239 C 131.413 89.914 133.413 90.753 133.046 90.16 C 132.918 89.952 128.847 87.611 128.169 87.355 C 128.028 87.302 127.682 87.058 127.401 86.813 C 126.934 86.407 123.829 84.558 120.423 82.658 L 119.078 81.908 L 119.078 68.24 L 119.078 54.572 L 121.319 53.362 C 122.551 52.696 124.02 51.843 124.584 51.465 C 125.147 51.087 126.53 50.282 127.657 49.676 C 128.784 49.07 129.936 48.374 130.218 48.13 C 130.499 47.886 131.45 47.327 132.33 46.887 C 133.211 46.447 133.931 46.031 133.931 45.963 C 133.931 45.895 133.902 45.854 133.867 45.874 C 133.832 45.893 133.515 45.961 133.163 46.026 M 258.387 81.688 C 258.387 81.968 260.067 82.801 260.377 82.675 C 260.496 82.626 260.097 82.332 259.49 82.02 C 258.883 81.709 258.387 81.56 258.387 81.688 M 282.584 195.414 C 280.895 196.272 278.966 197.281 278.298 197.655 L 277.082 198.335 L 277.081 226.825 L 277.081 255.314 L 281.69 255.314 L 286.3 255.314 L 286.3 224.584 C 286.3 200.067 286.234 193.854 285.977 193.854 C 285.8 193.854 284.273 194.556 282.584 195.414 M 236.876 225.736 L 236.876 255.314 L 241.485 255.314 L 246.095 255.314 L 246.095 242.382 L 246.095 229.449 L 254.545 229.449 L 262.996 229.449 L 262.996 224.712 L 262.996 219.974 L 254.545 219.974 L 246.095 219.974 L 246.095 212.676 L 246.095 205.378 L 259.667 205.378 L 273.239 205.378 L 273.239 200.768 L 273.239 196.159 L 255.058 196.159 L 236.876 196.159 L 236.876 225.736 M 309.475 209.885 C 300.872 211.063 293.992 217.31 292.582 225.224 C 292.482 225.787 292.296 226.375 292.168 226.529 C 291.334 227.539 291.336 238.041 292.171 239.64 C 292.297 239.88 292.64 240.958 292.933 242.034 C 293.607 244.506 294.742 247.022 295.63 248.015 C 296.008 248.438 296.474 249.078 296.666 249.437 C 296.991 250.045 298.017 251.05 300.15 252.851 C 304.189 256.263 313.223 257.157 319.334 254.75 C 321.66 253.834 324.59 251.692 325.88 249.965 C 326.366 249.315 327.008 248.498 327.308 248.148 C 328.005 247.333 329.298 244.488 330.159 241.869 C 334.128 229.799 328.744 214.629 319.395 211.544 C 318.798 211.347 318.31 211.098 318.31 210.991 C 318.31 210.441 311.576 209.598 309.475 209.885 M 331.37 211.153 C 331.37 211.728 333.658 220.458 333.94 220.96 C 334.071 221.193 334.829 223.976 335.625 227.145 C 336.421 230.314 337.161 233.022 337.269 233.163 C 337.442 233.387 337.962 235.343 340.13 243.918 C 340.415 245.045 340.737 246.082 340.846 246.223 C 340.955 246.364 341.546 248.467 342.158 250.896 L 343.272 255.314 L 347.116 255.31 C 349.231 255.308 351.086 255.221 351.239 255.118 C 351.393 255.014 352.243 251.991 353.129 248.399 C 354.016 244.808 354.824 241.754 354.926 241.613 C 355.028 241.472 355.772 238.649 356.579 235.339 C 357.385 232.029 358.151 229.091 358.279 228.809 C 358.408 228.528 358.667 227.606 358.855 226.761 L 359.197 225.224 L 360.295 229.834 C 360.899 232.369 361.494 234.635 361.617 234.871 C 361.739 235.106 362.544 238.102 363.404 241.529 C 364.265 244.956 365.057 247.875 365.165 248.015 C 365.272 248.156 365.747 249.859 366.219 251.799 L 367.077 255.326 L 371.034 255.256 L 374.99 255.186 L 375.222 254.417 C 375.349 253.995 375.559 253.419 375.688 253.137 C 375.911 252.652 376.768 249.472 378.38 243.15 C 378.775 241.601 379.169 240.275 379.257 240.205 C 379.345 240.134 379.683 239.04 380.009 237.772 C 380.335 236.504 381.002 233.912 381.49 232.01 C 381.978 230.109 382.529 228.207 382.714 227.785 C 382.899 227.362 383.698 224.481 384.49 221.383 C 385.282 218.284 386.046 215.518 386.188 215.237 C 386.769 214.083 387.416 210.982 387.101 210.861 C 386.932 210.796 384.85 210.774 382.474 210.813 L 378.156 210.883 L 376.96 216.005 C 376.303 218.822 375.688 221.3 375.594 221.511 C 375.432 221.873 373.28 231.109 372.581 234.443 C 372.404 235.288 372.173 236.095 372.069 236.236 C 371.964 236.376 371.737 237.241 371.564 238.156 C 371.092 240.652 370.983 240.526 370.065 236.427 C 369.6 234.35 369.064 232.305 368.875 231.882 C 368.686 231.46 367.891 228.636 367.109 225.608 C 366.327 222.58 365.613 219.814 365.521 219.462 C 365.43 219.11 365.272 218.707 365.171 218.566 C 365.07 218.425 364.549 216.607 364.014 214.526 L 363.04 210.742 L 359.331 210.813 L 355.623 210.883 L 355.266 212.164 C 355.07 212.868 354.8 213.675 354.666 213.956 C 354.532 214.238 353.781 217.004 352.997 220.102 C 352.212 223.201 351.416 226.082 351.226 226.504 C 350.882 227.273 348.023 238.567 348.007 239.219 C 347.968 240.894 347.294 240.288 346.89 238.216 C 346.172 234.529 344.682 228.069 344.451 227.646 C 344.333 227.429 343.519 224.087 342.643 220.22 C 341.766 216.352 340.956 213.073 340.842 212.932 C 340.728 212.791 340.554 212.244 340.455 211.716 L 340.276 210.755 L 335.823 210.755 C 331.969 210.755 331.37 210.809 331.37 211.153 M 315.561 219.767 C 324.243 223.769 324.233 242.255 315.546 246.592 C 309.371 249.675 302.693 245.4 301.262 237.448 C 300.489 233.157 301.356 224.979 302.679 224.072 C 302.782 224.001 303.343 223.24 303.927 222.38 C 306.315 218.862 311.211 217.762 315.561 219.767" /><path id="path2" fill="#ec642c" fill-rule="evenodd" stroke="none" d="M 213.828 41.597 C 213.828 54.141 213.928 56.082 214.569 56.082 C 214.702 56.082 215.688 56.601 216.76 57.234 C 217.832 57.868 218.812 58.387 218.938 58.387 C 219.064 58.387 219.493 58.649 219.891 58.971 C 220.289 59.292 221.248 59.885 222.023 60.289 C 223.704 61.165 226.352 62.721 226.889 63.147 C 227.1 63.315 228.223 63.941 229.385 64.537 C 230.547 65.134 231.498 65.722 231.498 65.845 C 231.498 65.968 231.628 66.069 231.786 66.069 C 231.944 66.069 232.895 66.565 233.898 67.17 C 234.902 67.775 236.098 68.423 236.556 68.61 C 237.013 68.796 237.388 69.055 237.388 69.186 C 237.388 69.317 237.762 69.6 238.22 69.814 C 239.432 70.381 241.964 71.82 244.942 73.635 C 245.506 73.978 246.802 74.688 247.823 75.212 C 248.844 75.736 249.68 76.255 249.68 76.366 C 249.68 76.478 249.815 76.569 249.98 76.569 C 250.145 76.569 250.462 76.729 250.684 76.926 C 250.906 77.123 252.007 77.762 253.129 78.347 C 254.252 78.931 255.258 79.548 255.366 79.718 C 255.474 79.887 255.565 79.91 255.57 79.77 C 255.575 79.599 255.64 79.599 255.766 79.77 C 255.869 79.91 257.135 80.639 258.579 81.389 L 261.204 82.752 L 261.204 69.161 C 261.204 61.686 261.11 55.57 260.995 55.57 C 260.88 55.57 259.238 54.667 257.345 53.565 C 255.453 52.462 250.967 49.854 247.375 47.769 C 243.784 45.685 239.52 43.205 237.9 42.259 C 233.499 39.688 219.436 31.511 216.584 29.865 C 215.212 29.073 214.03 28.425 213.959 28.425 C 213.887 28.425 213.828 34.352 213.828 41.597 M 119.396 68.424 L 119.462 81.791 L 124.218 84.621 C 126.834 86.178 130.176 88.188 131.645 89.087 C 133.113 89.986 135.294 91.305 136.492 92.018 C 137.689 92.73 138.821 93.464 139.007 93.648 C 139.193 93.832 139.5 93.982 139.69 93.982 C 139.879 93.982 140.073 94.081 140.12 94.202 C 140.166 94.324 140.781 94.727 141.485 95.1 L 142.766 95.777 L 142.837 82.267 C 142.903 69.571 142.88 68.738 142.453 68.423 C 142.202 68.238 140.787 67.383 139.309 66.522 C 134.708 63.845 130.865 61.613 127.273 59.532 C 125.371 58.431 122.878 56.973 121.731 56.293 C 120.585 55.614 119.576 55.058 119.488 55.058 C 119.401 55.058 119.359 61.073 119.396 68.424 M 187.959 70.249 C 185.891 71.444 182.22 73.512 175.16 77.458 C 172.695 78.836 169.67 80.55 168.438 81.267 L 166.197 82.571 L 166.197 123.085 L 166.197 163.599 L 166.901 163.966 C 169.174 165.15 170.735 166.028 171.669 166.647 C 172.251 167.034 173.073 167.521 173.496 167.731 C 173.918 167.941 175.426 168.823 176.846 169.691 C 178.266 170.559 180.253 171.685 181.263 172.193 C 182.273 172.702 183.099 173.203 183.101 173.307 C 183.102 173.411 183.361 173.619 183.677 173.77 C 185.325 174.559 188.923 176.607 189.347 176.998 C 189.615 177.245 189.932 177.387 190.052 177.313 C 190.171 177.239 190.269 164.913 190.269 149.921 C 190.269 134.929 190.331 122.663 190.407 122.663 C 190.484 122.663 194.142 124.758 198.538 127.319 C 202.934 129.88 208.078 132.876 209.97 133.977 C 211.862 135.079 213.505 135.98 213.619 135.98 C 213.734 135.98 213.828 129.998 213.828 122.687 L 213.828 109.394 L 211.076 107.856 C 209.561 107.01 207.228 105.695 205.89 104.933 C 204.552 104.171 202.017 102.741 200.256 101.755 C 198.496 100.768 195.531 99.106 193.668 98.06 L 190.28 96.159 L 190.274 82.65 C 190.271 75.221 190.18 69.142 190.071 69.142 C 189.963 69.142 189.012 69.64 187.959 70.249 M 10.755 200.768 L 10.755 205.378 L 19.206 205.378 L 27.657 205.378 L 27.657 229.941 C 27.657 243.45 27.727 254.686 27.812 254.909 C 27.946 255.257 28.608 255.314 32.55 255.314 L 37.132 255.314 L 37.132 230.346 L 37.132 205.378 L 45.711 205.378 L 54.289 205.378 L 54.289 200.768 L 54.289 196.159 L 32.522 196.159 L 10.755 196.159 L 10.755 200.768 M 64.533 209.914 C 62.357 210.153 60.186 210.633 59.415 211.046 C 58.924 211.309 58.412 211.524 58.277 211.524 C 56.264 211.524 51.23 216.526 49.518 220.226 C 49.159 221.003 48.714 221.927 48.53 222.279 C 47.014 225.186 46.468 235.484 47.587 240.077 C 48.302 243.009 48.152 242.573 49.247 244.914 C 49.767 246.026 50.192 246.985 50.192 247.045 C 50.192 248.054 55.089 252.998 57.106 254.026 C 63.474 257.27 75.219 256.5 79.109 252.582 C 79.472 252.216 80.202 251.643 80.73 251.307 C 82.011 250.494 81.969 250.327 79.962 248.22 C 79.011 247.223 77.868 245.991 77.423 245.482 C 76.477 244.405 75.856 244.322 75.061 245.168 C 74.307 245.97 71.386 247.303 69.669 247.628 C 63.486 248.801 58.848 246.195 56.985 240.502 C 56.432 238.813 56.331 238.899 60.051 237.895 C 65.237 236.495 67.184 235.921 68.118 235.517 C 69.002 235.134 77.126 232.778 77.562 232.778 C 77.685 232.778 78.233 232.585 78.778 232.349 C 79.323 232.113 79.885 231.889 80.026 231.851 C 80.166 231.814 81.417 231.469 82.804 231.084 L 85.325 230.385 L 85.152 228.701 C 84.906 226.323 84.031 222.49 83.627 222.028 C 83.44 221.814 83.204 221.351 83.103 220.999 C 82.011 217.204 76.215 211.268 73.602 211.268 C 73.403 211.268 73.239 211.146 73.239 210.996 C 73.239 210.847 73.132 210.792 73.001 210.873 C 72.87 210.954 72.7 210.918 72.623 210.793 C 72.546 210.669 71.99 210.478 71.389 210.369 C 70.787 210.26 70.122 210.132 69.91 210.083 C 69.366 209.957 65.3 209.83 64.533 209.914 M 106.658 210.108 C 104.441 210.45 101.026 212.031 99.606 213.373 L 98.868 214.069 L 98.701 213.177 C 98.609 212.686 98.587 212.004 98.652 211.661 C 98.819 210.791 98.626 210.755 93.705 210.755 L 89.373 210.755 L 89.373 233.04 L 89.373 255.325 L 93.992 255.255 L 98.611 255.186 L 98.597 242.766 C 98.579 226.273 98.854 223.86 101.048 221.297 C 103.98 217.871 110.664 217.484 113.49 220.577 C 116.106 223.441 116.251 224.53 116.257 241.299 L 116.261 255.326 L 120.807 255.256 L 125.352 255.186 L 125.4 240.269 C 125.43 231.125 125.355 225.352 125.208 225.352 C 125.076 225.352 124.968 225 124.968 224.57 C 124.968 223.459 124.238 220.392 123.517 218.479 C 122.537 215.874 119.8 212.809 117.538 211.782 C 116.766 211.432 116.065 211.051 115.982 210.937 C 115.41 210.151 109.681 209.642 106.658 210.108 M 142.766 209.893 C 140.597 210.073 138.109 210.619 137.004 211.157 C 136.37 211.466 135.423 211.917 134.898 212.159 C 133.512 212.8 130.602 215.899 130.602 216.735 C 130.602 216.951 130.503 217.188 130.382 217.263 C 129.9 217.561 129.522 220.517 129.623 223.212 C 129.825 228.621 131.799 231.185 138.156 234.298 C 141.329 235.852 145.192 237.469 145.577 237.404 C 146.285 237.286 151.128 240.347 151.812 241.345 C 154.081 244.656 151.445 247.552 145.915 247.824 C 142.577 247.988 137.434 247.039 136.376 246.063 C 136.243 245.94 135.926 245.839 135.672 245.839 C 135.419 245.839 135.211 245.721 135.211 245.576 C 135.211 245.432 134.944 245.212 134.618 245.088 C 134.292 244.964 133.594 244.57 133.066 244.212 C 132.058 243.528 131.519 243.541 131.272 244.256 C 131.051 244.897 129.701 247.208 128.682 248.689 C 127.428 250.512 127.481 250.646 130.033 252.136 C 139.347 257.575 153.204 257.499 158.366 251.981 C 159.011 251.291 159.539 250.628 159.539 250.507 C 159.539 250.387 159.746 250.065 159.999 249.792 C 161.831 247.816 162.204 238.17 160.491 237.082 C 160.319 236.973 160.287 236.882 160.42 236.88 C 160.552 236.878 160.408 236.641 160.1 236.354 C 159.791 236.066 159.539 235.73 159.539 235.605 C 159.539 234.58 155.298 231.607 151.729 230.131 C 150.461 229.606 148.91 228.921 148.282 228.609 C 147.654 228.297 147.078 228.031 147.001 228.019 C 145.489 227.777 140.913 225.403 139.872 224.32 C 136.655 220.971 140.217 217.526 146.102 218.295 C 149.902 218.791 153.928 220.263 155.396 221.693 C 155.816 222.103 156.21 222.119 156.21 221.727 C 156.21 221.564 156.487 221.068 156.826 220.623 C 157.165 220.179 157.727 219.225 158.075 218.503 C 158.424 217.781 158.968 216.771 159.284 216.259 C 160.147 214.863 159.788 214.362 156.931 212.975 C 155.619 212.338 154.037 211.684 153.416 211.521 C 152.795 211.359 152.046 211.075 151.752 210.892 C 150.727 210.252 145.472 209.668 142.766 209.893 M 180.326 210.02 C 175.637 210.59 169.896 214.07 167.814 217.606 C 167.461 218.204 167.062 218.694 166.926 218.694 C 166.79 218.694 166.75 218.809 166.837 218.95 C 166.924 219.091 166.879 219.206 166.736 219.206 C 165.923 219.206 163.636 226.56 163.636 229.176 C 163.636 229.732 163.537 230.249 163.416 230.324 C 163.149 230.488 163.111 235.851 163.376 235.851 C 163.479 235.851 163.637 236.629 163.729 237.58 C 163.932 239.702 164.674 242.719 165.413 244.43 C 165.717 245.134 166.104 246.028 166.272 246.415 C 166.441 246.802 166.652 247.119 166.742 247.119 C 166.832 247.119 167.389 247.862 167.981 248.77 C 168.573 249.678 169.537 250.818 170.124 251.303 C 170.711 251.788 171.536 252.49 171.959 252.863 C 176.259 256.659 186.645 257.194 192.702 253.932 C 196.219 252.037 201.28 245.832 201.28 243.413 C 201.28 243.323 201.497 242.766 201.761 242.175 C 203.039 239.32 203.465 230.012 202.485 226.376 C 201.033 220.993 199.378 218.017 196.031 214.775 C 194.945 213.724 192.094 211.78 191.637 211.78 C 191.559 211.78 190.933 211.497 190.244 211.151 C 188.11 210.079 183.842 209.592 180.326 210.02 M 224.456 209.914 C 223.463 210.035 220.909 210.8 220.743 211.025 C 220.672 211.121 220.13 211.444 219.538 211.745 C 218.945 212.045 217.999 212.73 217.436 213.266 L 216.41 214.241 L 216.336 212.562 L 216.261 210.883 L 211.78 210.883 L 207.298 210.883 L 207.233 233.099 L 207.167 255.314 L 211.778 255.314 L 216.389 255.314 L 216.402 242.19 C 216.418 226.061 216.46 225.573 218.083 222.621 C 220.018 219.101 224.44 218.044 229.724 219.837 C 230.77 220.192 231.646 220.484 231.67 220.485 C 231.713 220.487 231.927 219.565 232.116 218.565 C 232.349 217.328 232.85 215.723 233.096 215.423 C 233.243 215.243 233.291 215.023 233.201 214.934 C 233.112 214.845 233.167 214.617 233.324 214.428 C 233.481 214.239 233.524 214.085 233.419 214.085 C 233.314 214.085 233.341 213.94 233.478 213.764 C 234.146 212.912 233.815 211.268 232.976 211.268 C 232.819 211.268 232.499 211.094 232.266 210.883 C 231.553 210.238 226.711 209.637 224.456 209.914 M 68.336 218.564 C 71.153 218.946 73.674 221.063 74.865 224.046 C 75.398 225.381 75.376 225.407 73.239 225.974 C 70.222 226.776 66.461 227.924 65.995 228.185 C 65.742 228.327 65.435 228.38 65.312 228.304 C 65.189 228.228 65.05 228.264 65.003 228.383 C 64.955 228.502 63.361 229.037 61.46 229.572 C 59.558 230.106 57.57 230.695 57.042 230.881 L 56.082 231.219 L 56.082 230.381 C 56.082 224.782 59.128 219.699 63.093 218.681 C 63.674 218.532 64.252 218.382 64.378 218.348 C 64.706 218.258 67.007 218.384 68.336 218.564 M 185.147 218.971 C 187.036 219.403 188.878 220.449 189.994 221.722 C 191.626 223.584 191.675 223.648 191.969 224.328 C 192.122 224.68 192.429 225.391 192.653 225.909 C 196.364 234.505 191.672 246.526 184.22 247.514 C 180.414 248.019 174.392 244.412 174.392 241.627 C 174.392 241.408 174.27 241.229 174.121 241.229 C 173.971 241.229 173.921 241.114 174.008 240.973 C 174.095 240.832 174.059 240.717 173.928 240.717 C 173.797 240.717 173.564 240.227 173.411 239.629 C 172.166 234.776 172.359 228.713 173.866 225.282 C 174.527 223.78 176.463 220.983 177.08 220.641 C 177.361 220.486 177.881 220.168 178.236 219.936 C 179.884 218.856 182.843 218.442 185.147 218.971" /><path id="path3" fill="#e47444" fill-rule="evenodd" stroke="none" d="M 284.882 55.314 C 284.882 62.849 284.915 65.931 284.955 62.164 C 284.995 58.396 284.995 52.231 284.955 48.464 C 284.915 44.696 284.882 47.778 284.882 55.314 M 119.14 68.177 L 119.078 81.936 L 120.102 82.458 C 121.364 83.102 121.45 82.956 120.233 82.238 L 119.339 81.71 L 119.27 68.064 L 119.202 54.417 L 119.14 68.177 M 121.85 83.412 C 122.533 83.97 125.48 85.624 125.48 85.45 C 125.48 85.346 122.141 83.318 121.511 83.039 C 121.37 82.977 121.522 83.145 121.85 83.412 M 127.642 86.788 C 127.739 86.944 128.185 87.249 128.633 87.466 C 129.391 87.833 129.413 87.831 128.937 87.446 C 128.159 86.815 127.43 86.444 127.642 86.788 M 98.656 212.42 C 98.659 212.983 98.711 213.184 98.773 212.865 C 98.834 212.547 98.832 212.086 98.767 211.841 C 98.703 211.596 98.653 211.857 98.656 212.42 M 98.71 241.869 C 98.71 248.912 98.743 251.756 98.783 248.19 C 98.824 244.623 98.824 238.862 98.783 235.385 C 98.743 231.909 98.71 234.827 98.71 241.869" /><path id="path4" fill="#f48725" fill-rule="evenodd" stroke="none" d="M 212.548 29.027 C 210.609 30.188 207.279 32.096 204.225 33.793 C 202.817 34.576 201.376 35.4 201.024 35.624 C 200.414 36.012 195.691 38.688 188.732 42.586 C 186.972 43.572 184.494 44.986 183.227 45.728 C 180.906 47.086 178.659 48.361 174.648 50.596 C 173.451 51.263 171.549 52.348 170.423 53.008 C 169.296 53.668 166.761 55.108 164.789 56.207 C 162.817 57.306 160.282 58.749 159.155 59.414 C 158.028 60.079 156.3 61.058 155.314 61.589 C 154.328 62.12 153.118 62.807 152.625 63.117 C 150.555 64.415 143.305 68.459 143.046 68.459 C 142.846 68.459 142.785 72.343 142.834 82.107 C 142.898 94.939 142.929 95.744 143.346 95.569 C 144.209 95.208 146.609 93.913 146.735 93.74 C 146.876 93.547 149.858 91.816 150.064 91.808 C 150.134 91.805 150.609 91.544 151.119 91.228 C 151.628 90.912 152.138 90.653 152.251 90.653 C 152.364 90.653 152.638 90.493 152.861 90.298 C 153.371 89.85 156.873 87.901 157.81 87.543 C 158.198 87.395 158.515 87.18 158.515 87.066 C 158.515 86.883 160.498 85.78 163.764 84.146 C 164.328 83.864 164.904 83.504 165.045 83.345 C 165.329 83.024 168.432 81.219 175.16 77.46 C 180.465 74.496 184.707 72.107 187.717 70.389 C 188.919 69.703 189.985 69.142 190.086 69.142 C 190.186 69.142 190.269 75.126 190.269 82.439 L 190.269 95.735 L 192.125 94.689 C 193.147 94.113 194.673 93.218 195.519 92.7 C 196.364 92.182 198.726 90.802 200.768 89.634 C 202.81 88.465 205.807 86.729 207.426 85.777 C 209.046 84.825 211.22 83.56 212.257 82.968 L 214.142 81.89 L 214.049 55.03 C 213.998 40.257 213.956 28.173 213.956 28.176 C 213.956 28.18 213.323 28.562 212.548 29.027 M 282.843 43.205 C 281.233 44.16 277.438 46.373 271.831 49.625 C 270 50.687 267.177 52.335 265.557 53.287 C 263.937 54.239 262.295 55.16 261.908 55.335 L 261.204 55.652 L 261.204 69.177 L 261.204 82.701 L 262.42 81.985 C 263.089 81.59 265.768 80.024 268.374 78.502 C 270.98 76.981 274.149 75.129 275.416 74.386 C 277.703 73.046 281.96 70.592 283.801 69.554 L 284.759 69.014 L 284.761 55.634 C 284.762 48.275 284.677 42.263 284.571 42.274 C 284.465 42.285 283.688 42.704 282.843 43.205 M 140.077 66.952 C 140.077 67.023 140.423 67.259 140.845 67.478 C 141.268 67.696 141.613 67.817 141.613 67.747 C 141.613 67.676 141.268 67.44 140.845 67.222 C 140.423 67.003 140.077 66.882 140.077 66.952 M 234.126 97.634 C 232.402 98.654 229.521 100.338 227.724 101.378 C 223.22 103.982 220.345 105.663 216.966 107.669 C 215.382 108.609 214 109.325 213.893 109.259 C 213.787 109.193 213.731 115.179 213.769 122.56 C 213.807 129.941 213.741 135.98 213.624 135.98 C 213.507 135.98 211.862 135.079 209.97 133.977 C 208.078 132.876 202.934 129.88 198.538 127.319 C 194.142 124.758 190.485 122.663 190.41 122.663 C 190.335 122.663 190.244 134.994 190.207 150.064 C 190.171 165.134 190.219 177.465 190.315 177.465 C 190.41 177.465 190.661 177.292 190.873 177.081 C 191.084 176.869 191.362 176.697 191.491 176.697 C 191.62 176.697 191.935 176.466 192.19 176.184 C 192.444 175.903 192.792 175.672 192.962 175.672 C 193.131 175.672 193.69 175.388 194.202 175.04 C 194.715 174.692 195.134 174.475 195.134 174.558 C 195.134 174.641 195.53 174.407 196.014 174.038 C 196.497 173.669 197.006 173.367 197.145 173.367 C 197.283 173.367 197.435 173.27 197.482 173.151 C 197.529 173.033 198.662 172.379 200 171.699 C 201.338 171.019 202.951 170.097 203.585 169.65 C 204.219 169.203 205.659 168.346 206.786 167.745 C 207.913 167.144 209.009 166.5 209.221 166.313 C 209.434 166.126 210.586 165.467 211.782 164.847 L 213.956 163.721 L 214.023 150.1 L 214.089 136.479 L 214.727 136.188 C 215.078 136.028 215.365 135.794 215.365 135.667 C 215.365 135.541 215.463 135.498 215.582 135.571 C 215.702 135.645 216.019 135.502 216.286 135.253 C 216.554 135.004 217.119 134.619 217.542 134.398 C 219.619 133.313 220.941 132.553 221.639 132.044 C 222.061 131.737 222.868 131.257 223.431 130.979 C 223.995 130.701 224.513 130.413 224.584 130.339 C 224.654 130.266 225.288 129.92 225.992 129.571 C 226.697 129.223 227.503 128.75 227.785 128.521 C 228.067 128.292 228.988 127.729 229.834 127.27 C 232.378 125.886 233.635 125.153 234.443 124.579 C 234.866 124.279 235.812 123.758 236.547 123.42 L 237.883 122.807 L 237.896 109.291 C 237.906 98.548 237.842 95.775 237.584 95.778 C 237.406 95.779 235.85 96.615 234.126 97.634 M 193.086 97.682 C 193.086 97.753 193.431 97.989 193.854 98.207 C 194.277 98.426 194.622 98.547 194.622 98.477 C 194.622 98.406 194.277 98.17 193.854 97.951 C 193.431 97.733 193.086 97.612 193.086 97.682 M 199.488 101.267 C 199.488 101.338 199.834 101.574 200.256 101.793 C 200.679 102.011 201.024 102.132 201.024 102.062 C 201.024 101.991 200.679 101.755 200.256 101.536 C 199.834 101.318 199.488 101.197 199.488 101.267 M 205.378 104.596 C 205.378 104.667 205.723 104.903 206.146 105.122 C 206.569 105.34 206.914 105.461 206.914 105.391 C 206.914 105.32 206.569 105.084 206.146 104.866 C 205.723 104.647 205.378 104.526 205.378 104.596 M 211.78 108.181 C 211.78 108.252 212.125 108.488 212.548 108.707 C 212.971 108.925 213.316 109.046 213.316 108.976 C 213.316 108.906 212.971 108.669 212.548 108.451 C 212.125 108.232 211.78 108.111 211.78 108.181" /></g></svg>